<svg width="1024" height="500" viewBox="0 0 1024 500" xmlns="http://www.w3.org/2000/svg">
<defs>
<radialGradient id="felt" cx="35%" cy="40%" r="80%">
<stop offset="0%" stop-color="#1b6b45"/>
<stop offset="60%" stop-color="#0f4d31"/>
<stop offset="100%" stop-color="#08301e"/>
</radialGradient>
<linearGradient id="gold" x1="0" y1="0" x2="0" y2="1">
<stop offset="0%" stop-color="#ffe9a8"/>
<stop offset="45%" stop-color="#f5c542"/>
<stop offset="100%" stop-color="#c8901a"/>
</linearGradient>
<linearGradient id="tile" x1="0" y1="0" x2="0" y2="1">
<stop offset="0%" stop-color="#fffdf7"/>
<stop offset="100%" stop-color="#e6ddc7"/>
</linearGradient>
</defs>
<rect x="0" y="0" width="1024" height="500" fill="url(#felt)"/>
<rect x="3" y="3" width="1018" height="494" fill="none" stroke="#f5c542" stroke-width="6" opacity="0.5"/>

<g opacity="0.9">
<g transform="translate(600,150)">
<rect x="0" y="0" width="78" height="108" rx="9" fill="url(#tile)" stroke="#b9ad8c" stroke-width="1.5"/>
<text x="39" y="52" font-family="'Hiragino Mincho ProN',serif" font-size="46" font-weight="bold" fill="#1b6b45" text-anchor="middle">一</text>
<circle cx="39" cy="80" r="9" fill="#c0392b"/>
</g>
<g transform="translate(700,120) rotate(6)">
<rect x="0" y="0" width="78" height="108" rx="9" fill="url(#tile)" stroke="#b9ad8c" stroke-width="1.5"/>
<text x="39" y="56" font-family="'Hiragino Mincho ProN',serif" font-size="40" font-weight="bold" fill="#1b6b45" text-anchor="middle">三</text>
<text x="39" y="92" font-family="'Hiragino Mincho ProN',serif" font-size="22" font-weight="bold" fill="#c0392b" text-anchor="middle">萬</text>
</g>
<g transform="translate(800,160) rotate(-5)">
<rect x="0" y="0" width="78" height="108" rx="9" fill="url(#tile)" stroke="#b9ad8c" stroke-width="1.5"/>
<circle cx="28" cy="34" r="8" fill="#1b6b45"/>
<circle cx="50" cy="34" r="8" fill="#1b6b45"/>
<circle cx="28" cy="56" r="8" fill="#c0392b"/>
<circle cx="50" cy="56" r="8" fill="#1b6b45"/>
<circle cx="39" cy="80" r="8" fill="#1b6b45"/>
</g>
<g transform="translate(880,220) rotate(10)">
<rect x="0" y="0" width="78" height="108" rx="9" fill="url(#tile)" stroke="#b9ad8c" stroke-width="1.5"/>
<rect x="33" y="20" width="12" height="68" rx="3" fill="#1b6b45"/>
<rect x="20" y="30" width="12" height="48" rx="3" fill="#1b6b45"/>
<rect x="46" y="30" width="12" height="48" rx="3" fill="#c0392b"/>
</g>
</g>

<text x="90" y="150" font-family="'Hiragino Mincho ProN','Yu Mincho',serif" font-size="52" fill="#eafff2" opacity="0.85">麻雀</text>
<text x="86" y="290" font-family="'Hiragino Mincho ProN','Yu Mincho',serif" font-size="150" font-weight="bold" fill="url(#gold)" stroke="#7a5510" stroke-width="1.5">辻斬る！</text>
<rect x="92" y="330" width="470" height="4" rx="2" fill="#f5c542" opacity="0.8"/>
<text x="92" y="382" font-family="'Hiragino Kaku Gothic ProN',sans-serif" font-size="34" font-weight="bold" fill="#eafff2">何切る問題で、麻雀の実力を斬り拓く</text>
<text x="94" y="428" font-family="'Hiragino Kaku Gothic ProN',sans-serif" font-size="22" fill="#bfe6ce">初級〜上級・牌効率が身につく何切るトレーナー</text>
</svg>
